<svg width="48" height="48" viewBox="0 0 48 48" fill="none" xmlns="http://www.w3.org/2000/svg">
<rect width="48" height="48" rx="10" fill="#514E9C"/>
<path d="M25.586 31.5868L25.8449 32.2011C27.4155 31.5391 29.4431 30.9345 30.8233 30.7424L31.0892 30.7171L31.101 30.716L31.1127 30.7144C32.2595 30.564 33.1727 29.5198 33.1727 28.3601V18.2534C33.1727 16.8586 32.0475 15.7334 30.6527 15.7334H30.5993H30.5696L30.54 15.7361C28.7981 15.8918 26.2947 16.6967 24.6735 17.6052L24.6725 17.6057C24.231 17.854 23.9993 18.3143 23.9993 18.7734V18.7851C23.9988 18.3604 23.7967 17.8905 23.3413 17.6333C21.7193 16.7108 19.1599 15.8775 17.3858 15.7355L17.3852 15.7355C15.9836 15.6248 14.826 16.6918 14.826 18.1067V28.3734C14.826 29.5331 15.7392 30.5774 16.886 30.7278L16.8944 30.7289L16.9029 30.7298L17.1489 30.7557C18.536 30.9334 20.5767 31.55 22.1495 32.2259L22.1523 32.2271C23.0367 32.6023 23.9993 31.9525 23.9993 31.0001V30.9751C24.0005 31.9265 24.9625 32.5755 25.8464 32.2005L25.586 31.5868ZM25.586 31.5868C27.1993 30.9067 29.2927 30.2801 30.746 30.0801L24.9993 18.1867C24.786 18.3067 24.666 18.5334 24.666 18.7734V30.9734C24.666 31.4534 25.146 31.7734 25.586 31.5868ZM36.6527 18.4116V18.4134V29.5868C36.6527 31.8808 35.9714 33.6318 34.7946 34.8087C33.6178 35.9855 31.8668 36.6667 29.5727 36.6667H18.4127C16.1186 36.6667 14.3678 35.9855 13.191 34.8073C12.0142 33.629 11.3327 31.8746 11.3327 29.5734V18.4134C11.3327 16.1193 12.0139 14.3683 13.1908 13.1915C14.3676 12.0147 16.1186 11.3334 18.4127 11.3334H29.586C31.8802 11.3334 33.631 12.0147 34.806 13.1912C35.9809 14.3675 36.659 16.1179 36.6527 18.4116Z" fill="white" stroke="white" stroke-width="1.33333"/>
</svg>
