<svg width="36" height="26" viewBox="0 0 36 26" fill="none" xmlns="http://www.w3.org/2000/svg">
<g clip-path="url(#clip0_283_81227)">
<rect width="36" height="26" rx="5" fill="white"/>
<path fill-rule="evenodd" clip-rule="evenodd" d="M0 0H15.4286V12.1333H0V0Z" fill="#1A47B8"/>
<path fill-rule="evenodd" clip-rule="evenodd" d="M15.4286 0V1.73333H36V0H15.4286ZM15.4286 3.46667V5.2H36V3.46667H15.4286ZM15.4286 6.93333V8.66667H36V6.93333H15.4286ZM15.4286 10.4V12.1333H36V10.4H15.4286ZM0 13.8667V15.6H36V13.8667H0ZM0 17.3333V19.0667H36V17.3333H0ZM0 20.8V22.5333H36V20.8H0ZM0 24.2667V26H36V24.2667H0Z" fill="#F93939"/>
<path fill-rule="evenodd" clip-rule="evenodd" d="M1.71484 1.7334V3.46673H3.42913V1.7334H1.71484ZM5.14342 1.7334V3.46673H6.8577V1.7334H5.14342ZM8.57199 1.7334V3.46673H10.2863V1.7334H8.57199ZM12.0006 1.7334V3.46673H13.7148V1.7334H12.0006ZM10.2863 3.46673V5.20006H12.0006V3.46673H10.2863ZM6.8577 3.46673V5.20006H8.57199V3.46673H6.8577ZM3.42913 3.46673V5.20006H5.14342V3.46673H3.42913ZM1.71484 5.20006V6.9334H3.42913V5.20006H1.71484ZM5.14342 5.20006V6.9334H6.8577V5.20006H5.14342ZM8.57199 5.20006V6.9334H10.2863V5.20006H8.57199ZM12.0006 5.20006V6.9334H13.7148V5.20006H12.0006ZM1.71484 8.66673V10.4001H3.42913V8.66673H1.71484ZM5.14342 8.66673V10.4001H6.8577V8.66673H5.14342ZM8.57199 8.66673V10.4001H10.2863V8.66673H8.57199ZM12.0006 8.66673V10.4001H13.7148V8.66673H12.0006ZM10.2863 6.9334V8.66673H12.0006V6.9334H10.2863ZM6.8577 6.9334V8.66673H8.57199V6.9334H6.8577ZM3.42913 6.9334V8.66673H5.14342V6.9334H3.42913Z" fill="white"/>
</g>
<defs>
<clipPath id="clip0_283_81227">
<rect width="36" height="26" rx="5" fill="white"/>
</clipPath>
</defs>
</svg>
