<svg width="48" height="48" viewBox="0 0 48 48" fill="none" xmlns="http://www.w3.org/2000/svg">
<path d="M34.3856 27.9068C31.6389 30.6401 27.7056 31.4801 24.2522 30.4001L17.9722 36.6668C17.5189 37.1334 16.6256 37.4134 15.9856 37.3201L13.0789 36.9201C12.1189 36.7868 11.2256 35.8801 11.0789 34.9201L10.6789 32.0134C10.5856 31.3734 10.8922 30.4801 11.3322 30.0268L17.5989 23.7601C16.5322 20.2934 17.3589 16.3601 20.1056 13.6268C24.0389 9.69342 30.4256 9.69342 34.3722 13.6268C38.3189 17.5601 38.3189 23.9734 34.3856 27.9068Z" stroke="#7370B5" stroke-width="2" stroke-miterlimit="10" stroke-linecap="round" stroke-linejoin="round"/>
<path d="M17.1855 31.3201L20.2522 34.3867" stroke="#7370B5" stroke-width="2" stroke-miterlimit="10" stroke-linecap="round" stroke-linejoin="round"/>
<path d="M27.334 22.6667C28.4386 22.6667 29.334 21.7713 29.334 20.6667C29.334 19.5622 28.4386 18.6667 27.334 18.6667C26.2294 18.6667 25.334 19.5622 25.334 20.6667C25.334 21.7713 26.2294 22.6667 27.334 22.6667Z" stroke="#7370B5" stroke-width="2" stroke-linecap="round" stroke-linejoin="round"/>
</svg>
