<svg width="32" height="32" viewBox="0 0 32 32" fill="none" xmlns="http://www.w3.org/2000/svg">
<path d="M8.9327 23.9998H5.53271C3.62605 23.9998 2.66602 23.0398 2.66602 21.1331V5.5332C2.66602 3.62654 3.62605 2.6665 5.53271 2.6665H11.266C13.1727 2.6665 14.1327 3.62654 14.1327 5.5332V7.99984" stroke="#7370B5" stroke-width="2" stroke-miterlimit="10" stroke-linecap="round" stroke-linejoin="round"/>
<path d="M23.1602 11.2266V26.1067C23.1602 28.2534 22.0936 29.3333 19.9469 29.3333H12.1602C10.0136 29.3333 8.93359 28.2534 8.93359 26.1067V11.2266C8.93359 9.07998 10.0136 8 12.1602 8H19.9469C22.0936 8 23.1602 9.07998 23.1602 11.2266Z" stroke="#7370B5" stroke-width="2" stroke-miterlimit="10" stroke-linecap="round" stroke-linejoin="round"/>
<path d="M17.8672 7.99984V5.5332C17.8672 3.62654 18.8271 2.6665 20.7338 2.6665H26.4671C28.3738 2.6665 29.3338 3.62654 29.3338 5.5332V21.1331C29.3338 23.0398 28.3738 23.9998 26.4671 23.9998H23.1605" stroke="#7370B5" stroke-width="2" stroke-miterlimit="10" stroke-linecap="round" stroke-linejoin="round"/>
<path d="M13.334 14.6665H18.6673" stroke="#7370B5" stroke-width="2" stroke-miterlimit="10" stroke-linecap="round" stroke-linejoin="round"/>
<path d="M13.334 18.6665H18.6673" stroke="#7370B5" stroke-width="2" stroke-miterlimit="10" stroke-linecap="round" stroke-linejoin="round"/>
<path d="M16 29.3335V25.3335" stroke="#7370B5" stroke-width="2" stroke-miterlimit="10" stroke-linecap="round" stroke-linejoin="round"/>
</svg>
