<svg width="48" height="48" viewBox="0 0 48 48" fill="none" xmlns="http://www.w3.org/2000/svg">
<path d="M11.6927 16.9253L11.6927 16.924C11.8235 14.083 14.067 11.8358 16.9261 11.6925C16.9263 11.6925 16.9265 11.6925 16.9267 11.6925L23.5889 11.3727C25.4762 11.3005 27.3192 11.9952 28.6487 13.3247L34.6887 19.3647C37.295 21.971 37.295 26.2289 34.6887 28.8353L28.8376 34.6864C28.8372 34.6868 28.8368 34.6872 28.8364 34.6876C27.5256 35.9855 25.8166 36.64 24.0935 36.64C22.3819 36.64 20.6607 35.9844 19.3649 34.6886L13.3249 28.6486C11.9927 27.3164 11.288 25.4729 11.3727 23.591C11.3727 23.5907 11.3728 23.5904 11.3728 23.5901L11.6927 16.9253ZM12.3476 16.9404L12.3476 16.9414L12.0275 23.608L12.0274 23.6105C11.9525 25.3036 12.5961 26.9654 13.7954 28.1647L19.8354 34.2047C20.9729 35.3423 22.4889 35.9733 24.0935 35.9733C25.6981 35.9733 27.214 35.3423 28.3515 34.2047L34.2049 28.3514C35.3424 27.2138 35.9734 25.6979 35.9734 24.0933C35.9734 22.4887 35.3424 20.9728 34.2049 19.8353L28.1649 13.7953C26.9668 12.5972 25.3041 11.9512 23.6197 12.0408C23.6191 12.0409 23.6184 12.0409 23.6178 12.0409L16.9582 12.3606C16.9576 12.3606 16.957 12.3607 16.9565 12.3607C14.4388 12.4697 12.4712 14.4381 12.3476 16.9404Z" fill="#7370B5" stroke="#7370B5" stroke-width="1.33333"/>
<path d="M20.6673 24.3333C18.6488 24.3333 17.0007 22.6851 17.0007 20.6666C17.0007 18.6481 18.6488 16.9999 20.6673 16.9999C22.6858 16.9999 24.334 18.6481 24.334 20.6666C24.334 22.6851 22.6858 24.3333 20.6673 24.3333ZM20.6673 17.6666C19.0191 17.6666 17.6673 19.0184 17.6673 20.6666C17.6673 22.3148 19.0191 23.6666 20.6673 23.6666C22.3155 23.6666 23.6673 22.3148 23.6673 20.6666C23.6673 19.0184 22.3155 17.6666 20.6673 17.6666Z" fill="#7370B5" stroke="#7370B5" stroke-width="1.33333"/>
</svg>
